<?xml version="1.0" standalone="no"?>
<!DOCTYPE svg PUBLIC "-//W3C//DTD SVG 20010904//EN"
 "http://www.w3.org/TR/2001/REC-SVG-20010904/DTD/svg10.dtd">
<svg version="1.0" xmlns="http://www.w3.org/2000/svg"
 width="1280.000000pt" height="744.000000pt" viewBox="0 0 1280.000000 744.000000"
 preserveAspectRatio="xMidYMid meet">
<metadata>
Created by potrace 1.15, written by Peter Selinger 2001-2017
</metadata>
<g transform="translate(0.000000,744.000000) scale(0.100000,-0.100000)"
fill="#ffffff" stroke="none">
<path d="M11716 7416 c-39 -31 -39 -72 -2 -160 26 -61 28 -75 23 -149 -10
-145 -109 -450 -226 -692 -124 -256 -265 -463 -443 -650 -54 -57 -98 -107 -98
-112 0 -5 -10 -19 -23 -31 -17 -16 -26 -19 -34 -11 -9 9 -19 5 -41 -12 -249
-204 -390 -303 -572 -398 -242 -126 -477 -197 -730 -221 -131 -13 -381 2 -459
26 -165 52 -388 79 -576 71 -305 -14 -570 -87 -910 -251 -208 -100 -358 -188
-623 -364 -203 -134 -242 -169 -242 -219 0 -30 -15 -37 -85 -39 -33 -1 -140
-16 -237 -33 -241 -42 -393 -55 -578 -48 -161 6 -278 27 -377 66 -54 21 -62
19 -65 -22 -2 -22 -5 -24 -30 -15 -15 6 -28 15 -28 21 -1 19 -117 105 -189
141 -163 82 -406 136 -610 136 -55 0 -59 2 -65 26 -4 15 -6 27 -4 29 2 1 106
57 232 124 126 67 236 130 243 140 7 11 43 36 80 56 83 45 123 81 123 111 0
26 -24 54 -47 54 -11 0 -14 6 -9 24 5 20 0 26 -34 41 -22 10 -40 21 -39 24 0
3 27 26 59 51 77 58 145 142 170 208 23 60 26 139 6 164 -12 16 -20 7 -85 -87
-40 -58 -75 -105 -78 -105 -5 0 2 13 91 163 25 42 44 77 41 77 -2 0 -58 -29
-125 -64 -66 -35 -120 -61 -120 -58 1 6 44 41 76 60 18 12 94 130 122 190 47
100 29 216 -43 288 -32 32 -65 32 -65 1 0 -13 -14 -36 -30 -52 -26 -25 -33
-28 -50 -17 -11 7 -24 12 -29 12 -6 0 -50 -40 -98 -88 -126 -126 -264 -191
-438 -206 -57 -5 -58 -5 -19 6 35 9 46 19 84 79 39 62 45 67 70 63 23 -5 34 2
74 48 77 87 99 131 100 201 1 60 0 62 -29 72 -24 8 -64 32 -104 61 -2 2 11 17
28 34 40 40 61 114 61 214 l0 80 -48 46 c-66 63 -114 85 -189 85 -84 0 -116
-23 -123 -91 -7 -55 -19 -81 -90 -191 -28 -41 -50 -86 -50 -99 0 -28 -15 -37
-128 -75 l-86 -29 -21 20 c-27 25 -26 25 -100 -5 -85 -34 -202 -52 -455 -69
-351 -25 -465 -59 -594 -178 -58 -52 -64 -62 -75 -116 -17 -85 -57 -142 -122
-175 -73 -37 -128 -45 -304 -46 -179 -2 -266 -14 -320 -45 -22 -13 -89 -38
-148 -55 -60 -17 -121 -38 -137 -46 -56 -29 -94 -101 -72 -136 10 -16 8 -21
-14 -35 -23 -15 -27 -16 -41 -2 -13 14 -21 11 -80 -34 -85 -64 -164 -103 -353
-173 -85 -31 -196 -79 -246 -106 -114 -60 -196 -83 -399 -109 -274 -35 -365
-70 -445 -171 -52 -66 -74 -128 -66 -181 4 -24 7 -57 6 -75 -1 -52 25 -99 90
-160 83 -79 100 -108 100 -176 0 -46 8 -71 50 -155 116 -232 277 -379 455
-415 68 -13 71 -15 100 -62 30 -48 30 -51 34 -208 3 -158 3 -160 30 -183 54
-49 125 -76 199 -76 87 -1 145 13 291 69 231 90 241 92 286 76 22 -7 52 -25
67 -39 14 -15 31 -23 36 -20 6 3 43 -10 84 -29 103 -49 176 -65 291 -65 121 0
151 12 215 88 104 124 144 161 178 168 42 8 91 -9 134 -45 l34 -28 -31 -39
c-22 -29 -32 -54 -36 -95 -4 -31 -32 -134 -62 -230 -70 -215 -85 -287 -85
-395 l0 -85 -48 -22 c-41 -19 -64 -22 -172 -21 -69 0 -183 4 -254 9 -97 6
-127 5 -122 -3 10 -16 5 -15 -88 10 -50 13 -74 24 -63 27 16 6 16 8 1 30 -34
48 -86 61 -244 60 -135 0 -150 -2 -215 -27 -39 -16 -104 -50 -145 -78 -41 -27
-97 -56 -125 -65 -49 -16 -50 -17 -56 -65 -3 -27 -18 -75 -34 -108 -24 -51
-27 -67 -23 -126 6 -86 40 -148 131 -247 81 -86 108 -93 159 -43 29 29 31 30
49 14 25 -22 59 -95 59 -125 0 -13 -7 -37 -15 -53 -20 -39 -19 -45 11 -56 l25
-10 -20 -29 c-11 -15 -26 -41 -33 -57 l-12 -29 -5 39 -6 40 -37 -32 c-25 -22
-48 -60 -74 -120 -33 -76 -38 -97 -38 -167 -1 -71 3 -88 32 -147 49 -101 105
-156 177 -179 72 -23 109 -24 125 -5 10 13 20 11 68 -14 83 -42 142 -54 230
-47 98 7 173 34 399 141 109 51 220 96 275 111 100 27 125 26 258 -10 88 -24
127 -20 162 15 20 21 28 37 25 50 -4 17 0 20 29 20 25 0 50 -11 87 -39 92 -69
244 -154 562 -312 l310 -154 72 1 c69 0 78 3 210 69 131 65 141 69 208 69 54
0 80 -6 115 -23 42 -23 46 -23 90 -8 25 9 64 21 86 27 75 19 122 77 76 95 -9
3 -72 9 -139 12 l-121 6 -11 41 c-5 22 -9 42 -7 43 2 2 27 -2 57 -9 30 -7 106
-12 169 -12 97 1 127 5 189 27 40 14 91 38 113 52 l41 27 64 -21 c203 -67 451
-49 722 50 223 82 318 139 364 219 21 37 24 39 87 45 108 11 222 32 281 53 58
20 159 80 159 95 0 4 -9 26 -20 48 l-21 39 23 9 c13 4 82 30 153 56 163 60
254 106 313 162 43 39 46 44 30 57 -26 19 -23 24 21 36 43 11 122 66 251 175
235 197 321 235 550 241 135 3 186 10 195 24 3 4 1 20 -5 35 l-10 27 23 -19
c148 -117 355 -306 383 -351 19 -29 34 -55 34 -58 0 -6 -138 111 -250 211 -70
63 -75 65 -84 46 -14 -32 66 -143 199 -277 118 -119 264 -226 369 -270 396
-167 596 -204 1165 -211 318 -5 355 -4 363 11 11 20 52 21 69 0 7 -8 24 -21
39 -29 47 -24 128 27 153 98 4 10 13 16 20 13 116 -48 176 -43 337 29 58 26
121 50 142 52 32 5 38 2 52 -24 8 -16 32 -52 53 -79 21 -27 60 -83 85 -124 91
-146 224 -280 353 -356 108 -63 436 -117 587 -97 115 16 138 26 138 61 0 15
-5 33 -11 39 -12 12 27 38 133 84 84 36 155 76 179 100 9 9 22 18 29 21 10 3
1 37 -32 124 -27 70 -41 122 -36 125 17 11 -2 65 -36 105 -42 50 -61 103 -41
111 19 7 19 37 0 53 -31 25 -3 80 40 80 24 0 102 50 142 92 45 47 76 113 81
172 3 47 0 55 -38 106 -23 30 -60 87 -81 125 -71 131 -133 185 -211 185 -47 0
-128 51 -181 112 -24 29 -69 96 -98 148 -29 52 -70 119 -92 148 -34 47 -67
118 -67 144 0 5 9 4 20 -2 27 -14 35 6 34 85 -2 79 -36 160 -120 287 -80 120
-150 177 -256 209 -100 31 -213 24 -294 -17 -55 -27 -59 -31 -58 -62 2 -27 -2
-33 -25 -38 -14 -3 -32 -8 -40 -10 -7 -2 -22 7 -33 21 -11 14 -24 25 -30 25
-6 0 -83 -29 -172 -63 -208 -82 -244 -92 -346 -91 -231 1 -384 118 -355 270 6
36 6 36 292 175 382 187 541 297 594 413 10 22 19 55 19 73 0 28 9 39 73 86
282 210 469 495 494 756 6 61 11 71 85 175 169 234 233 377 245 547 l6 86 -32
22 c-18 13 -50 25 -71 28 -22 3 -40 7 -40 8 0 1 24 53 54 116 78 166 123 321
142 487 8 72 -9 102 -57 102 -24 0 -29 6 -43 48 -15 44 -15 56 -2 118 47 225
19 417 -76 512 -45 46 -137 82 -207 82 -31 0 -39 5 -55 35 -11 19 -22 35 -25
35 -3 0 -19 -11 -35 -24z m-11257 -2848 c18 -6 22 -13 17 -31 -3 -12 -6 -32
-6 -44 0 -49 -130 -19 -160 36 -10 20 -8 21 30 21 33 0 40 3 40 20 0 21 18 21
79 -2z m3580 -440 c-31 -63 -131 -212 -149 -223 -9 -6 133 247 153 273 26 33
24 5 -4 -50z m6177 -751 c-14 -30 -35 -62 -46 -72 -20 -18 -21 -18 -40 3 l-19
21 62 54 c34 31 64 54 66 52 2 -3 -8 -29 -23 -58z m-7881 -139 c-4 -18 -13
-44 -21 -58 -12 -22 -13 -23 -13 -5 -1 47 12 95 26 95 11 0 13 -8 8 -32z m439
7 c-7 -17 -14 -18 -41 -8 -16 6 -15 8 7 14 38 11 40 10 34 -6z m-514 -130
c-43 -25 -122 -43 -210 -49 -47 -3 -78 -3 -70 1 21 9 261 61 285 62 18 0 17
-2 -5 -14z m7935 -153 c-1 -1 -14 3 -29 9 -28 13 -51 43 -66 87 -8 20 3 13 44
-33 30 -33 53 -61 51 -63z m1477 -175 c26 -40 56 -97 67 -127 10 -30 28 -75
40 -100 13 -28 20 -64 20 -95 l-1 -50 -18 40 c-83 179 -176 405 -167 405 7 0
33 -33 59 -73z m-9011 -1000 c-13 -13 -15 14 -3 64 l7 34 3 -44 c2 -24 -2 -49
-7 -54z m-496 -97 c-22 -4 -71 -10 -110 -12 -66 -5 -68 -5 -35 8 19 7 69 12
110 12 63 0 69 -1 35 -8z m-468 -76 c-3 -3 -12 -4 -19 -1 -8 3 -5 6 6 6 11 1
17 -2 13 -5z m3108 -620 l105 -27 -37 -33 c-35 -30 -44 -33 -105 -34 l-68 0 0
29 c0 16 -3 43 -6 60 -4 17 -4 31 0 31 4 0 54 -12 111 -26z"/>
<path d="M3788 430 c-47 -5 -146 -19 -220 -30 -73 -12 -205 -32 -293 -46 -92
-14 -230 -27 -324 -31 l-163 -6 7 22 c5 16 -1 29 -25 52 -28 28 -35 31 -73 26
-23 -4 -103 -15 -177 -26 -213 -32 -345 -41 -643 -48 -241 -5 -282 -8 -300
-23 -20 -17 -20 -17 24 -42 79 -46 133 -53 393 -50 216 3 238 1 226 -13 -19
-22 2 -63 36 -71 37 -9 353 12 544 37 85 11 279 40 430 64 151 24 324 51 384
60 l110 16 50 -55 c48 -53 55 -56 126 -70 208 -41 444 -44 1098 -15 l282 12
29 -27 28 -27 554 11 c305 6 678 12 829 13 l275 2 74 -28 c212 -79 429 -95
1002 -71 l426 18 32 -23 c43 -31 125 -49 251 -57 138 -9 255 5 568 67 320 62
446 75 596 59 61 -6 146 -20 188 -31 89 -23 146 -26 176 -10 18 10 20 15 11
40 -15 42 -47 59 -152 82 -90 19 -100 19 -417 4 -513 -24 -874 -34 -1455 -41
l-540 -6 -45 46 -44 46 -876 0 c-832 0 -880 1 -977 20 -221 43 -430 46 -958
14 -132 -7 -293 -14 -359 -14 l-118 0 -62 65 c-53 57 -68 67 -111 75 -75 14
-318 20 -417 10z"/>
</g>
</svg>
