<?xml version="1.0" standalone="no"?>
<!DOCTYPE svg PUBLIC "-//W3C//DTD SVG 20010904//EN"
 "http://www.w3.org/TR/2001/REC-SVG-20010904/DTD/svg10.dtd">
<svg version="1.0" xmlns="http://www.w3.org/2000/svg"
 width="941.000000pt" height="1280.000000pt" viewBox="0 0 941.000000 1280.000000"
 preserveAspectRatio="xMidYMid meet">
<metadata>
Created by potrace 1.15, written by Peter Selinger 2001-2017
</metadata>
<g transform="translate(0.000000,1280.000000) scale(0.100000,-0.100000)"
fill="#ffffff" stroke="none">
<path d="M2885 12794 c-146 -12 -533 -83 -705 -129 -106 -29 -383 -159 -560
-264 -91 -54 -239 -140 -330 -191 -198 -111 -268 -160 -337 -232 -63 -67 -74
-102 -80 -246 -9 -211 17 -285 150 -415 109 -108 135 -144 210 -292 71 -139
94 -223 112 -415 8 -85 19 -158 24 -163 26 -26 139 125 250 334 l46 86 -3
-216 c-2 -119 0 -246 5 -282 5 -37 6 -75 3 -85 -4 -10 4 -66 17 -126 12 -59
39 -202 58 -317 55 -325 71 -523 60 -727 l-7 -122 -37 -40 c-106 -113 -202
-403 -286 -857 -14 -77 -32 -196 -40 -265 -17 -145 -20 -334 -5 -325 5 3 10
16 10 27 0 12 3 19 6 16 3 -4 -9 -134 -26 -290 -45 -401 -38 -536 45 -785 49
-147 95 -231 172 -315 155 -167 173 -205 292 -610 237 -803 324 -1078 398
-1261 167 -413 166 -409 203 -636 19 -115 26 -135 90 -265 69 -142 138 -314
147 -371 l5 -30 -149 -23 c-205 -32 -506 -94 -724 -148 -970 -239 -1634 -598
-1833 -992 -36 -71 -66 -191 -66 -261 2 -710 1457 -1333 3530 -1510 435 -38
636 -45 1175 -45 872 0 1554 57 2276 189 1492 275 2427 801 2429 1366 0 70
-30 190 -66 261 -201 398 -867 755 -1864 1001 l-95 23 -7 84 c-11 131 -24 174
-104 335 -48 96 -80 175 -89 220 -42 195 -36 889 10 1230 14 105 28 233 31
285 11 166 -31 506 -91 735 -14 55 -58 177 -97 270 -39 94 -84 208 -100 255
-36 106 -79 262 -73 268 2 2 25 8 51 13 157 29 282 154 330 330 8 30 19 128
24 219 13 228 46 559 64 653 22 109 21 189 -2 210 -44 40 -173 26 -270 -30
-110 -63 -161 -114 -248 -244 -88 -133 -152 -201 -210 -225 -22 -9 -63 -14
-115 -12 -76 1 -85 4 -143 41 -33 22 -78 54 -98 71 -37 32 -55 51 -372 401
-99 110 -242 261 -316 335 -131 132 -310 290 -327 290 -5 0 -31 18 -58 41 -27
22 -56 44 -66 49 -9 5 -19 28 -23 52 -13 81 -48 183 -94 273 -37 72 -66 109
-140 185 -85 86 -99 106 -157 225 -162 328 -200 478 -212 845 -6 200 0 280 22
280 20 0 77 72 97 122 9 24 36 91 58 151 23 59 47 113 53 120 7 6 25 30 42 52
16 22 68 78 115 125 104 103 127 141 180 313 23 72 66 182 96 242 72 147 84
219 54 319 -18 59 -30 79 -73 121 -56 54 -231 165 -343 217 -38 17 -91 46
-119 63 -239 151 -506 256 -720 284 -144 19 -417 72 -452 87 -72 32 -443 61
-608 48z m238 -8113 c231 -67 520 -116 606 -102 28 4 53 5 55 2 7 -11 85 -453
105 -596 32 -226 44 -432 38 -663 -2 -117 -6 -215 -8 -216 -4 -4 -469 -39
-524 -40 l-30 -1 -6 110 c-6 129 -12 141 -142 341 -144 220 -165 276 -172 459
-12 296 -34 600 -51 707 -6 36 -5 41 10 35 9 -4 62 -20 119 -36z m2714 -750
c97 -50 192 -207 219 -365 20 -115 46 -151 168 -240 129 -95 179 -149 221
-239 18 -40 32 -73 31 -75 -2 -1 -55 4 -117 12 -334 43 -820 81 -1206 92
l-223 7 0 51 0 51 113 106 c134 128 197 224 252 388 37 112 59 143 121 174 31
16 161 52 219 61 60 9 163 -3 202 -23z"/>
</g>
</svg>
